<svg id="Calque_1" data-name="Calque 1" xmlns="http://www.w3.org/2000/svg" viewBox="0 0 514.13 530.16"><defs><style>.cls-1{fill:#e30016;opacity:0.8;}.cls-1,.cls-3{fill-rule:evenodd;}.cls-2,.cls-3{fill:#fff;}</style></defs><path class="cls-1" d="M197.14,478.94a198.15,198.15,0,0,1-182-146.74L13,323.87l8.58.4A198.11,198.11,0,0,1,203.53,471l2.23,8.33Zm200.58-146.4A198.16,198.16,0,0,1,221.49,478.6l-8.87.65,2.31-8.58A198.17,198.17,0,0,1,391.16,324.6L400,324Zm-6.56-94.76A198.14,198.14,0,0,1,214.93,91.71l-2.31-8.58,8.87.65A198.21,198.21,0,0,1,397.72,229.84l2.31,8.61Zm-376-7.6a198.12,198.12,0,0,1,182-146.74l8.62-.39-2.23,8.33a198.09,198.09,0,0,1-182,146.74l-8.58.39Zm191.32-13.82a64.85,64.85,0,1,1-64.84,64.84A64.82,64.82,0,0,1,206.49,216.36Zm0-21.58a86.43,86.43,0,1,1-86.43,86.42A86.42,86.42,0,0,1,206.49,194.78Zm0-120.09c114,0,206.51,92.48,206.51,206.51S320.52,487.69,206.49,487.69,0,395.21,0,281.2,92.45,74.69,206.49,74.69Z"/><path class="cls-2" d="M63.69,275.72c25-28.5,59.64-47,94.32-60.77,24.32-10,48.82-17.38,70.08-32.65,23-17.53,45.54-47.63,55.37-76.35,2.42,12.64,1,25.91-2.41,38.34A135.31,135.31,0,0,1,253,196.21c-13.56,15.17-31.5,25.6-50.07,33.25-20.44,8.52-49,16.16-70.07,22.66-23.26,6.93-46.24,15.33-69.15,23.6Z"/><path class="cls-2" d="M89.9,254.27c12.87,4.4,23.87,13.44,34,22.22,10,8.92,19.28,18.11,28.57,27.6,45.67,47.31,87,98.65,121.52,154.68a399.88,399.88,0,0,1,19.29,35.07c-21.25-16-40.51-34.39-59.09-53.26-45.66-47.2-86.75-98.76-121.44-154.56C105.67,274.91,99,264,89.9,254.27Z"/><path class="cls-2" d="M63.52,47.48C82.65,59.2,100.29,75.41,108.21,97c7,19,7.63,39.9,4,59.59-3.44,18.85-11.9,36.26-19.5,53.64a348,348,0,0,0-16.36,44.48c-7,23.64-10.21,48.28-13.87,72.46-4.95,31.14-5.44,62.76-5.91,94.13,0,3.7,0,7.63-.06,11.34.13,8.68.34,17.9.66,26.6.65,13.79,1.67,28.59,2.85,42.35.87,9.21,1.85,18.38,2.52,27.63l-2.84,1c-10.17-16-17.63-33.59-23.29-51.66a272.26,272.26,0,0,1-10-47.86c-3.8-29.83-1.07-60.2,5.59-89.39a245.3,245.3,0,0,1,8.76-31.39c7.12-20.27,17.89-38.93,26.05-58.57C73,236.8,78.07,222,81,206.54c2.8-15.12,3.74-30.66,4.69-46,1.2-18.85,3.82-38.52.11-57a88.39,88.39,0,0,0-6.35-19.78c-5.16-11.81-12-22.16-18.11-34.3l2.21-2Z"/><path class="cls-3" d="M444,4.51c0,2.19,1.29,3.59,1.29,4.18v9.66c0,2.21-4.73,5.59-6.49,6.06-3.86,1.05-7.29-3.16-8.64-3.16h-.32c-.74,0-1,.22-1,1v.31c0,1.08,1.69,4.35,1.93,8.06.17,2.52,1.62,5.79,4.18,5.79h.65c2.81,0,3.94-4.5,6.76-4.5.62,0,1.28.57,1.28,1,0,4.95-20.6,34.5-20.6,40.89v.32c0,1.46.81,1.71,1.26,2.93.38,1,.52,2.84.87,3.64.21.49,3.75,4.38,4.63,4.38,3,0,6.55-19.14,10.3-21.89,2.16,1.58,0,27.53,0,32.52,0,11.2-1,22.42-1,33.81l-.07,3.23.4,2.56c-.6.9-3.54,3.22-4.83,3.22-.32,0-1.52-2.45-4.83-3.22-1.6.85-6.43,7-6.43,8.37,0,2.75,2.32,8.7,4.83,8.7.76,0,3.69-3.6,5.35-4.3.77-.33,7.07-2.47,7.2-2.47,1.38,0,4.23,10.63,5.47,10.63,2.72,0,.94-13.39,3.53-15.14,1.51-1,11.88-5.14,13.85-5.14h.32c1.06,0,3.22,4.53,3.22,5.47V142c0,.12-4.25,5.13-4.64,5.34-2.65,1.44-6.88-.26-7.59,2.39h5.15a3.22,3.22,0,0,1,1.93.64c-.2,2.4-3.59,5.22-5.07,6.84-2,2.13-3.75,4.63-5.69,6.55-4,4-7.52,8.64-12.78,11.45l-.92-.69c0-2.24,1.75-8.17-.64-8.37-.56,2.38-7.45,10.39-9.16,13.06-2,3.06-7.59,10.62-7.59,14.63,0,1.6,2.79,5.79,4.19,5.79h1c3.85,0,6.82-4.75,8.5-7.27a86.56,86.56,0,0,1,7.36-8.43c2.88-2.86,12.76-15.39,15.7-16.17V170a4.8,4.8,0,0,0,.31,1.61c1.63.14,2.65,1.08,4.11.91a37.36,37.36,0,0,1,4.91-.59c.74,0,1,.23,1,1v1.29c0,2.57-2.05,5.8-4.18,5.8h-1.29c-.74,0-1-.23-1-1v-.32c0-2.26,1.76-2,2.25-3.87-2.93.07-14.49,10.58-14.49,11.91s3.27,5.48,4.51,5.48h.64c1.94,0,8.85-4.83,11.27-4.83.92,0,2.25.64,2.25,1.29s-.25.7-.64,1.29h-2.25a15.18,15.18,0,0,0-5.53,5.74c-1.38,2.24-2.32,5.53-6.07,5.53-3.12,5.91-4.84,7.95,2.85,11,2.56,1,5.53.65,6.55,3.41.88,2.36,1.59,5.22,4.77,5.22h1.61c3.74,0,3.15-4.25,4.72-7.2a38.12,38.12,0,0,1,5-7.21c2-2.35,3.63-3.95,5.79-6.12,1.87-1.88,7-3.59,7-5.23l.08-1.62-.4-3.53c-1.83-1.23-2.88-2.7-5.53-3.49-2.05-.61-5.31-1.66-7.67-1.66-.78-.53-2.89-.94-2.89-1.62,0-2.94,15.77-4.33,15.77-11.91V171c0-3.07-8.08-2.9-11.59-2.9-.39-.58-.64-.56-.64-1.29,0-2.11,7.08-4.7,7.08-7.08,0-2.93-7.75-3.87-10.94-3.87s-5.09,5.8-8.05,5.8h-1c-1,0-1.29-.94-1.29-1.93,0-2,5.22-8,6.77-8H472c4.77,0,11,2.29,14.62,3.73,2,.77,11.46,5.28,11.46,6.9,0,1.2-6.12,7.33-6.12,7.4,0,1,3.91,2.58,5.15,2.58.94,0,7.53-3,10.17-3.67s3.23-.34,4.59-2.18c.72-1,2.3-3.27,2.3-4.78v-.32c0-3.9-11.92-9.63-15.41-11-4.71-1.84-3.9-2.15-10.32-2.88-3.41-.39-8.91-.62-12.52-.65l-.7-.93c3.14-1.66,4.63-1.26,8.05-3.55,0-2.27,1-2.89,1-4.51,0-3.25-8.38-3.18-8.38-4.5,0-1.78,6.54-2.73,8.33-3.27a93.68,93.68,0,0,1,9.77-2.28l.89,1c-.46.87-1.91,3.47-2.5,4.25-1.17,1.57-3.21,2-3.61,3.48h7.4c3.27,0,4.34-1,6.25-2.45,1.06-.77,4.38-3.32,4.38-4.63v-2.91c0-2.49-3.76-7.72-6.44-7.72h-1.93c-2.89,0-5.31,1.6-8.38,1.6h-.31c-1.63,0-1-10.06-1.22-11.65-1.23-8.18,2.5-7.58,2.5-9.92V97.56c0-3.2-6.87-4.71-10.22-5.23-6-.94-7.82,5.23-10.05,5.23s.11-7,.51-8.18c1.23-3.57,1.88-4.14,4.63-6,2.35,0,6-.21,7.59-1.11,1.07-.6,3.68-3.54,3.68-5V77c0-1.81-7.11-6.34-8.37-6.44v3.22c0,1.1-3.46,2.26-4.5,2.26-.53,0-1-.19-1-.65,0-1.72,3.54-1.84,3.54-5.15,0-1.36-5.15-2.14-5.15-3.87,0-1.26,7.3-4.84,8.7-5.47,1.8-.81,2.77-1.65,4.65-2.42,1.24-.51,5.32-.28,5.32-1.77V54.42c0-3.18-3.22-5.56-3.22-6.77v-1c0-2.93,6.3-7.65,7.64-10.39,2.12-4.34-2.7-10.53-6-10.53h-1c-2.83,0-8.14,6.76-9.66,6.76-.74,0-2.9-2.3-2.9-2.58,0-1.23,2-1.92,2.82-2.65,1-.89,1.32-2.12,2.56-3.23,1.85-1.64,4.8-3.16,6.1-5.17,2.67-4.1-1.16-16.32-5-16.32-1.76,0-2.57,2.73-2.87,4.22C478.31,9,477.29,10,476,11.45a87.44,87.44,0,0,1-7.5,7c-1.91,1.6-14.32,14.09-15.22,14.09-2.86,0-2.58-4.47-2-6.85s3.59-3.31,5.75-4.22c2.31-1,10.1-7.62,10.1-9.86v-.32c0-3.22-6.36-3.94-8.05-5.14-1.18-.85-2.47-2.6-3.67-3.11-2.94-1.25-.72-3-3.73-3h-1.93C448,0,444,3.87,444,4.51Zm9.34,4.18a2.07,2.07,0,0,1,1.29-.64h2.89a1.23,1.23,0,0,1,1.29,1.29c0,.81-4,3.75-4.83,4.18-.43-.29-1.06-.48-1-1.29Zm-3.86,121.07c0-3-1.35-12.5-1.87-15.85-.67-4.38-.72-11.83-.7-16.67,0-10.83.69-22.78.63-33.81-.06-13,4.23-18,9.66-25.44,2-2.67,14.69-17.71,17.39-17.71.45,0,.64.44.64,1A7.71,7.71,0,0,1,472,27.37a16.92,16.92,0,0,0-2.25-.32c-.72,0-3.22,3-3.22,3.86v1.93c0,1.42,2.58,2,2.58,6.44,0,1-2.35,2.9-2.9,2.9-2.68,0-1.37-4.51-4.19-4.51h-.32c-1.17,0-8.05,10.27-8.05,10.3l1.23,5.75c1.09,2.07,3.49,2.62,6.82,2.62,1.56,0,2-.68,2.9-1.29l.08-5.15-.08-.31c0-1.55,1.09-2.26,2.57-2.26a4.56,4.56,0,0,1,1.61.32v3.22c0,3.56-3,7.73-6.76,7.73-3,0-8.69-1.87-8.69,2.57,0,2.69,2.11,8,4.18,8h1c2,0,4.35-2.25,5.15-2.25,2.14,0,0,5.5-.57,6.18-1.74,1.95-2.19,1.34-4.2,4.17a19.39,19.39,0,0,0-2.5,5.88c-.91,3.31-4,2.5-4,4.38,0,.51,3.76,5.15,4.83,5.15h.32c1.78,0,3.6-1.93,5.15-1.93,1.19,0-.9,9.4-1,11.25-.18,4.51-.63,8-.63,12.57-1.25,1.87-3.23,4.4-3.23,7.41,0,.81,2.58,4.08,2.58,4.82,0,1.05-8.17,3.55-8.69,3.55h-1C450,130.4,450,130.14,449.43,129.76Zm26.71-86.29c0-1.72,5.25-8.06,6.45-8.06a1.24,1.24,0,0,1,1.28,1.29c0,1.74-5.58,11.27-7.08,11.27-.45,0-.65-.43-.65-1ZM463,78.88c0-.33,1.09-2.89,1.93-2.89,1.71,0,.65,2,.65,3.54-.73.48-1.14,1.29-1.94,1.29-.45,0-.64-.44-.64-1Zm10,25.43c1.6-.42,4.15-3.86,6.12-3.86,1.78,0,3.54,11.29,3.54,14.49v6.12c0,.74-.23,1-1,1h-3.54c0-3.67,4.11-5.59,2.26-10.31a11.43,11.43,0,0,0-2.65-4.43c-2.08-2-4.76-.06-4.76-2Zm-5.15,11.92c0-1.3.34-2.89,1.61-2.89H470c.92,0,2.58,2.76,2.58,3.21v1.94c0,1.21-1.49,3.54-2.58,3.54S467.78,117.18,467.78,116.23Zm8.36,57.64h-.32c-.74,0-1-.23-1-1,0-1.3,1-4.18,1.93-4.18,1.44,0,2.29,1.66,2.9,2.57C479.14,172.11,477.31,173.87,476.14,173.87ZM480,196.4c-.57.38-4.45,3.87-4.5,3.87-2,0,1-4.81,1-8.05.58-.39.56-.65,1.29-.65C480.1,191.57,480,194.56,480,196.4Zm-14.81,6.76c0,1,1.9,2.58,2.9,2.58,1.95,0,2.28-1.61,2.89-1.61s1,.19,1,.65c0,.75-4.19,5.79-5.47,5.79H465.2c-1.52,0-5.47-2.12-5.47-3.86,0-1.14,6.59-9.66,7.4-9.66s1,.23,1,1C468.1,199,465.2,201.14,465.2,203.16Z"/></svg>